<svg width="1440" height="2200" viewBox="0 0 1440 2200" fill="none" xmlns="http://www.w3.org/2000/svg">
  <defs>
    <linearGradient id="sky" x1="720" y1="0" x2="720" y2="2200" gradientUnits="userSpaceOnUse">
      <stop offset="0" stop-color="#6477A4"/>
      <stop offset="0.36" stop-color="#556B98"/>
      <stop offset="0.72" stop-color="#334B74"/>
      <stop offset="1" stop-color="#172843"/>
    </linearGradient>
    <linearGradient id="water" x1="720" y1="1460" x2="720" y2="2200" gradientUnits="userSpaceOnUse">
      <stop offset="0" stop-color="#22395E" stop-opacity="0.14"/>
      <stop offset="1" stop-color="#101D34"/>
    </linearGradient>
    <linearGradient id="tower" x1="0" y1="0" x2="0" y2="1">
      <stop offset="0" stop-color="#324A73"/>
      <stop offset="1" stop-color="#1D2F4F"/>
    </linearGradient>
    <linearGradient id="deck" x1="0" y1="0" x2="0" y2="1">
      <stop offset="0" stop-color="#4B4458"/>
      <stop offset="1" stop-color="#2B283A"/>
    </linearGradient>
    <linearGradient id="hud" x1="0" y1="0" x2="1" y2="1">
      <stop stop-color="#B2FBFF" stop-opacity="0.96"/>
      <stop offset="1" stop-color="#72E7FF" stop-opacity="0.22"/>
    </linearGradient>
    <radialGradient id="centerGlow" cx="0" cy="0" r="1" gradientUnits="userSpaceOnUse" gradientTransform="translate(720 820) rotate(90) scale(300 320)">
      <stop stop-color="#B8F8FF" stop-opacity="0.32"/>
      <stop offset="1" stop-color="#B8F8FF" stop-opacity="0"/>
    </radialGradient>
  </defs>

  <rect width="1440" height="2200" fill="url(#sky)"/>
  <rect y="1460" width="1440" height="740" fill="url(#water)"/>

  <g opacity="0.12">
    <path d="M88 142L152 168" stroke="white"/>
    <path d="M276 120L364 150" stroke="white"/>
    <path d="M1112 170L1202 130" stroke="white"/>
    <path d="M1280 220L1350 182" stroke="white"/>
    <circle cx="180" cy="180" r="2" fill="white"/>
    <circle cx="1180" cy="150" r="2" fill="white"/>
    <circle cx="980" cy="240" r="1.6" fill="white"/>
  </g>

  <g opacity="0.96">
    <rect x="306" y="672" width="206" height="716" rx="26" fill="url(#tower)"/>
    <rect x="617" y="632" width="206" height="756" rx="26" fill="url(#tower)"/>
    <rect x="928" y="672" width="206" height="716" rx="26" fill="url(#tower)"/>
    <path d="M210 610C240 562 300 532 362 532H1076C1138 532 1198 562 1228 610L1260 664H178L210 610Z" fill="url(#deck)"/>
    <path d="M240 578C268 538 318 510 370 510H1068C1120 510 1170 538 1198 578L1212 606H226L240 578Z" fill="#5D5868"/>
    <path d="M178 664H1260" stroke="#A8F7FF" stroke-opacity="0.48" stroke-width="3"/>
  </g>

  <g opacity="0.42">
    <rect x="336" y="748" width="146" height="8" fill="#F5C07C"/>
    <rect x="647" y="708" width="146" height="8" fill="#F5C07C"/>
    <rect x="958" y="748" width="146" height="8" fill="#F5C07C"/>
  </g>

  <g opacity="0.82">
    <rect x="212" y="480" width="334" height="136" rx="10" stroke="url(#hud)" stroke-width="3"/>
    <rect x="896" y="480" width="334" height="136" rx="10" stroke="url(#hud)" stroke-width="3"/>
    <rect x="142" y="1328" width="420" height="330" rx="10" stroke="url(#hud)" stroke-width="3"/>
    <rect x="966" y="1282" width="332" height="410" rx="10" stroke="url(#hud)" stroke-width="3"/>
    <rect x="418" y="1852" width="604" height="126" rx="12" stroke="url(#hud)" stroke-width="3"/>
    <rect x="476" y="1056" width="488" height="116" rx="12" stroke="url(#hud)" stroke-width="3"/>

    <path d="M470 614L548 704H906" stroke="#9FF7FF" stroke-width="3"/>
    <path d="M976 614L898 704H610" stroke="#9FF7FF" stroke-width="3"/>
    <path d="M260 980H496" stroke="#9FF7FF" stroke-width="3"/>
    <path d="M944 980H1278" stroke="#9FF7FF" stroke-width="3"/>
    <path d="M720 770V1060" stroke="#9FF7FF" stroke-width="3"/>

    <circle cx="720" cy="926" r="210" stroke="#9FF7FF" stroke-width="10"/>
    <circle cx="720" cy="926" r="164" stroke="#9FF7FF" stroke-opacity="0.54" stroke-width="4"/>
    <circle cx="720" cy="926" r="118" stroke="#9FF7FF" stroke-opacity="0.36" stroke-width="2"/>
    <path d="M818 760C886 798 934 852 956 940" stroke="#9FF7FF" stroke-width="10" stroke-linecap="round"/>
    <path d="M602 812C546 862 510 930 504 1014" stroke="#9FF7FF" stroke-width="7" stroke-linecap="round"/>
  </g>

  <ellipse cx="720" cy="926" rx="310" ry="320" fill="url(#centerGlow)"/>

  <g opacity="0.85" fill="#A8F7FF">
    <rect x="312" y="528" width="168" height="16" rx="2" fill-opacity="0.22"/>
    <rect x="312" y="566" width="212" height="14" rx="2" fill-opacity="0.15"/>
    <rect x="312" y="604" width="120" height="12"/>
    <rect x="996" y="528" width="168" height="16" rx="2" fill-opacity="0.22"/>
    <rect x="996" y="566" width="212" height="14" rx="2" fill-opacity="0.15"/>
    <rect x="996" y="604" width="120" height="12"/>
  </g>

  <g opacity="0.18">
    <path d="M0 1600H1440" stroke="#B3DEFF" stroke-width="2"/>
    <path d="M0 1660H1440" stroke="#8EEEFF" stroke-width="1.6"/>
    <path d="M0 1720H1440" stroke="#B3DEFF" stroke-width="1.2"/>
  </g>
</svg>
