<svg width="1920" height="1080" viewBox="0 0 1920 1080" fill="none" xmlns="http://www.w3.org/2000/svg">
  <defs>
    <linearGradient id="sky" x1="960" y1="0" x2="960" y2="1080" gradientUnits="userSpaceOnUse">
      <stop offset="0" stop-color="#5C6F9E"/>
      <stop offset="0.42" stop-color="#506690"/>
      <stop offset="0.78" stop-color="#2A406A"/>
      <stop offset="1" stop-color="#182746"/>
    </linearGradient>
    <linearGradient id="water" x1="960" y1="760" x2="960" y2="1080" gradientUnits="userSpaceOnUse">
      <stop offset="0" stop-color="#223A63" stop-opacity="0.2"/>
      <stop offset="1" stop-color="#13213D"/>
    </linearGradient>
    <linearGradient id="tower" x1="0" y1="290" x2="0" y2="760" gradientUnits="userSpaceOnUse">
      <stop offset="0" stop-color="#314A75"/>
      <stop offset="1" stop-color="#1C2D50"/>
    </linearGradient>
    <linearGradient id="deck" x1="960" y1="235" x2="960" y2="352" gradientUnits="userSpaceOnUse">
      <stop offset="0" stop-color="#403C53"/>
      <stop offset="1" stop-color="#27253A"/>
    </linearGradient>
    <linearGradient id="hud" x1="0" y1="0" x2="1" y2="1">
      <stop stop-color="#B6FFFF" stop-opacity="0.95"/>
      <stop offset="1" stop-color="#6EE3FF" stop-opacity="0.28"/>
    </linearGradient>
    <radialGradient id="glow" cx="0" cy="0" r="1" gradientUnits="userSpaceOnUse" gradientTransform="translate(960 404) rotate(90) scale(280 280)">
      <stop stop-color="#B3F8FF" stop-opacity="0.34"/>
      <stop offset="1" stop-color="#B3F8FF" stop-opacity="0"/>
    </radialGradient>
  </defs>

  <rect width="1920" height="1080" fill="url(#sky)"/>
  <rect y="760" width="1920" height="320" fill="url(#water)"/>

  <g opacity="0.18">
    <path d="M120 76L182 118" stroke="white"/>
    <path d="M402 126L460 82" stroke="white"/>
    <path d="M684 70L740 120" stroke="white"/>
    <path d="M1120 154L1212 104" stroke="white"/>
    <path d="M1412 74L1496 126" stroke="white"/>
    <path d="M1640 154L1736 112" stroke="white"/>
    <path d="M300 238L456 224" stroke="white"/>
    <path d="M760 212L938 230" stroke="white"/>
    <path d="M1198 218L1356 204" stroke="white"/>
    <circle cx="228" cy="120" r="1.6" fill="white"/>
    <circle cx="594" cy="100" r="1.2" fill="white"/>
    <circle cx="866" cy="136" r="1.4" fill="white"/>
    <circle cx="1260" cy="108" r="1.3" fill="white"/>
    <circle cx="1588" cy="120" r="1.5" fill="white"/>
  </g>

  <g opacity="0.3">
    <rect x="272" y="40" width="1376" height="1000" rx="120" stroke="white" stroke-width="6"/>
    <rect x="880" y="62" width="160" height="18" rx="9" fill="white" fill-opacity="0.3"/>
    <path d="M1558 84H1592" stroke="white" stroke-width="7" stroke-linecap="round"/>
    <path d="M1520 88C1520 74 1532 62 1546 62H1628C1642 62 1654 74 1654 88V104C1654 118 1642 130 1628 130H1546C1532 130 1520 118 1520 104V88Z" stroke="white" stroke-width="5"/>
    <path d="M1460 102C1474 102 1484 92 1484 78C1474 84 1466 92 1460 102Z" fill="white"/>
  </g>

  <g opacity="0.98">
    <rect x="520" y="370" width="210" height="360" rx="22" fill="url(#tower)"/>
    <rect x="855" y="340" width="210" height="390" rx="22" fill="url(#tower)"/>
    <rect x="1190" y="370" width="210" height="360" rx="22" fill="url(#tower)"/>
    <path d="M454 314C478 280 526 258 574 258H1348C1396 258 1442 280 1464 314L1494 364H426L454 314Z" fill="url(#deck)"/>
    <path d="M484 286C504 256 546 236 588 236H1332C1374 236 1414 256 1434 286L1448 308H470L484 286Z" fill="#5D596A"/>
    <path d="M426 364H1494" stroke="#B3F8FF" stroke-width="3" stroke-opacity="0.6"/>
  </g>

  <g opacity="0.4">
    <rect x="560" y="408" width="130" height="6" fill="#F5B76A"/>
    <rect x="894" y="386" width="130" height="6" fill="#F5B76A"/>
    <rect x="1228" y="408" width="130" height="6" fill="#F5B76A"/>
  </g>

  <g opacity="0.78">
    <rect x="548" y="292" width="292" height="120" rx="10" stroke="url(#hud)" stroke-width="2.5"/>
    <rect x="1082" y="292" width="292" height="120" rx="10" stroke="url(#hud)" stroke-width="2.5"/>
    <rect x="716" y="796" width="488" height="110" rx="14" stroke="url(#hud)" stroke-width="2.5"/>
    <rect x="1162" y="536" width="420" height="240" rx="10" stroke="url(#hud)" stroke-width="2.5"/>
    <rect x="316" y="472" width="358" height="264" rx="10" stroke="url(#hud)" stroke-width="2.5"/>
    <rect x="760" y="658" width="420" height="92" rx="10" stroke="url(#hud)" stroke-width="2.5"/>
    <path d="M810 404L1106 404" stroke="#97F5FF" stroke-width="2.5"/>
    <path d="M674 592H762" stroke="#97F5FF" stroke-width="2.5"/>
    <path d="M1162 594H1582" stroke="#97F5FF" stroke-width="2.5"/>
    <path d="M958 438V656" stroke="#97F5FF" stroke-width="2.5"/>
    <path d="M1034 392L1186 520" stroke="#97F5FF" stroke-width="2.5"/>
    <path d="M878 352L772 472" stroke="#97F5FF" stroke-width="2.5"/>
    <path d="M1398 416H1558" stroke="#97F5FF" stroke-width="2.5"/>
    <path d="M1464 714V858" stroke="#97F5FF" stroke-width="2.5"/>
    <circle cx="958" cy="504" r="152" stroke="#97F5FF" stroke-width="10"/>
    <circle cx="958" cy="504" r="112" stroke="#97F5FF" stroke-opacity="0.6" stroke-width="4"/>
    <circle cx="958" cy="504" r="72" stroke="#97F5FF" stroke-opacity="0.45" stroke-width="2"/>
    <path d="M1030 386C1080 408 1112 442 1130 500" stroke="#97F5FF" stroke-width="10" stroke-linecap="round"/>
    <path d="M846 428C812 462 792 506 790 558" stroke="#97F5FF" stroke-width="6" stroke-linecap="round"/>
  </g>

  <ellipse cx="958" cy="504" rx="280" ry="280" fill="url(#glow)"/>

  <g opacity="0.95" fill="#D9FBFF">
    <rect x="614" y="328" width="118" height="16" rx="2" fill="#7AE7FF" fill-opacity="0.2"/>
    <rect x="614" y="358" width="166" height="14" rx="2" fill="#7AE7FF" fill-opacity="0.16"/>
    <rect x="614" y="388" width="104" height="12" rx="2" fill="#7AE7FF"/>
    <rect x="1148" y="328" width="118" height="16" rx="2" fill="#7AE7FF" fill-opacity="0.2"/>
    <rect x="1148" y="358" width="166" height="14" rx="2" fill="#7AE7FF" fill-opacity="0.16"/>
    <rect x="1148" y="388" width="104" height="12" rx="2" fill="#7AE7FF"/>
  </g>
</svg>
