<svg width="1920" height="760" viewBox="0 0 1920 760" fill="none" xmlns="http://www.w3.org/2000/svg">
  <defs>
    <linearGradient id="cityGlow" x1="0" y1="0" x2="0" y2="1">
      <stop offset="0" stop-color="#6BD6FF" stop-opacity="0.22"/>
      <stop offset="1" stop-color="#F65314" stop-opacity="0.0"/>
    </linearGradient>
    <linearGradient id="towerTint" x1="0" y1="0" x2="0" y2="1">
      <stop offset="0" stop-color="#130A09"/>
      <stop offset="1" stop-color="#070403"/>
    </linearGradient>
    <linearGradient id="accentGlow" x1="0" y1="0" x2="0" y2="1">
      <stop offset="0" stop-color="#F65314" stop-opacity="0.42"/>
      <stop offset="1" stop-color="#F65314" stop-opacity="0"/>
    </linearGradient>
  </defs>

  <rect x="0" y="0" width="1920" height="760" fill="url(#cityGlow)"/>

  <path d="M0 512H1920" stroke="#6BD6FF" stroke-opacity="0.22" stroke-width="2"/>
  <path d="M0 560H1920" stroke="#F65314" stroke-opacity="0.14" stroke-width="2"/>

  <g opacity="0.95">
    <rect x="58" y="366" width="112" height="278" rx="5" fill="url(#towerTint)"/>
    <rect x="182" y="330" width="90" height="314" rx="5" fill="url(#towerTint)"/>
    <rect x="276" y="388" width="86" height="256" rx="5" fill="url(#towerTint)"/>

    <rect x="414" y="432" width="70" height="212" rx="4" fill="url(#towerTint)"/>
    <rect x="490" y="380" width="74" height="264" rx="4" fill="url(#towerTint)"/>
    <rect x="570" y="418" width="64" height="226" rx="4" fill="url(#towerTint)"/>

    <rect x="650" y="316" width="96" height="328" rx="6" fill="url(#towerTint)"/>
    <rect x="756" y="350" width="68" height="294" rx="4" fill="url(#towerTint)"/>

    <rect x="860" y="292" width="86" height="352" rx="14" fill="url(#towerTint)"/>
    <rect x="968" y="278" width="86" height="366" rx="14" fill="url(#towerTint)"/>
    <rect x="1076" y="302" width="86" height="342" rx="14" fill="url(#towerTint)"/>
    <path d="M838 266C848 244 875 232 902 232H1120C1148 232 1174 246 1182 266L1196 294H824L838 266Z" fill="#1A0D0A"/>
    <path d="M824 294H1196" stroke="#6BD6FF" stroke-opacity="0.28" stroke-width="2"/>

    <circle cx="1286" cy="392" r="112" stroke="#6BD6FF" stroke-opacity="0.24" stroke-width="4"/>
    <circle cx="1286" cy="392" r="72" stroke="#6BD6FF" stroke-opacity="0.2" stroke-width="2"/>
    <path d="M1174 392H1398M1286 280V504" stroke="#6BD6FF" stroke-opacity="0.18" stroke-width="2"/>
    <path d="M1210 316L1362 468M1362 316L1210 468" stroke="#6BD6FF" stroke-opacity="0.16" stroke-width="2"/>

    <rect x="1428" y="346" width="102" height="298" rx="6" fill="url(#towerTint)"/>
    <rect x="1540" y="372" width="84" height="272" rx="6" fill="url(#towerTint)"/>
    <rect x="1632" y="332" width="88" height="312" rx="6" fill="url(#towerTint)"/>
    <rect x="1728" y="390" width="70" height="254" rx="4" fill="url(#towerTint)"/>
    <rect x="1804" y="348" width="56" height="296" rx="4" fill="url(#towerTint)"/>

    <path d="M738 644C774 582 818 550 870 548C930 546 974 582 1010 644H738Z" fill="#120A08"/>
    <path d="M1010 644C1058 560 1122 530 1192 530C1262 530 1318 560 1368 644H1010Z" fill="#120A08"/>
    <path d="M602 644C652 578 698 552 742 550C786 548 830 572 870 644H602Z" fill="#120A08"/>
  </g>

  <g opacity="0.35">
    <rect x="72" y="406" width="84" height="2" fill="#F65314"/>
    <rect x="198" y="364" width="56" height="2" fill="#F65314"/>
    <rect x="874" y="342" width="58" height="2" fill="#F65314"/>
    <rect x="982" y="326" width="58" height="2" fill="#F65314"/>
    <rect x="1090" y="350" width="58" height="2" fill="#F65314"/>
    <rect x="1444" y="382" width="68" height="2" fill="#F65314"/>
    <rect x="1646" y="368" width="60" height="2" fill="#F65314"/>
  </g>

  <rect x="0" y="644" width="1920" height="116" fill="url(#accentGlow)"/>
</svg>
